<svg width="1024" height="364" viewBox="0 0 1024 364" fill="none" xmlns="http://www.w3.org/2000/svg">
<path d="M186.548 0H192.068C209.689 0 218.499 0 222.909 3.58381C226.741 6.69872 228.921 11.4089 228.814 16.3464C228.691 22.0272 222.987 28.7424 211.579 42.1727L109.408 162.463C104.49 168.253 102.03 171.149 101.072 174.397C100.227 177.261 100.2 180.304 100.994 183.182C101.896 186.447 104.303 189.385 109.119 195.262L109.119 195.262L213.123 322.173C224.073 335.535 229.548 342.217 229.601 347.851C229.647 352.75 227.445 357.4 223.627 360.469C219.236 364 210.598 364 193.323 364H186.822C182.386 364 180.168 364 178.114 363.444C176.295 362.952 174.577 362.141 173.039 361.051C171.304 359.82 169.893 358.109 167.071 354.686L35.6711 195.322C30.8105 189.427 28.3802 186.48 27.4711 183.202C26.6697 180.312 26.6966 177.254 27.5489 174.379C28.5157 171.117 30.9976 168.213 35.9613 162.405L167.086 8.96843C169.905 5.66991 171.314 4.02066 173.029 2.83589C174.549 1.78604 176.239 1.00726 178.024 0.534038C180.039 0 182.209 0 186.548 0Z" fill="#475569"/>
<path d="M838.252 0H832.732C815.111 0 806.301 0 801.891 3.58381C798.059 6.69872 795.879 11.4089 795.986 16.3464C796.109 22.0272 801.813 28.7424 813.221 42.1727L915.392 162.463C920.31 168.253 922.77 171.149 923.728 174.397C924.573 177.261 924.6 180.304 923.806 183.182C922.904 186.447 920.497 189.385 915.681 195.262L915.681 195.262L811.677 322.173C800.727 335.535 795.252 342.217 795.199 347.851C795.153 352.75 797.355 357.4 801.173 360.469C805.564 364 814.202 364 831.477 364H837.978C842.414 364 844.632 364 846.686 363.444C848.505 362.952 850.223 362.141 851.761 361.051C853.496 359.82 854.907 358.109 857.729 354.686L989.129 195.322C993.99 189.427 996.42 186.48 997.329 183.202C998.13 180.312 998.103 177.254 997.251 174.379C996.284 171.117 993.802 168.213 988.839 162.405L857.714 8.96843C854.895 5.66991 853.486 4.02066 851.771 2.83589C850.251 1.78604 848.561 1.00726 846.776 0.534038C844.761 0 842.591 0 838.252 0Z" fill="#475569"/>
<path d="M186 136C186 127.163 193.163 120 202 120H670V243H202C193.163 243 186 235.837 186 227V136Z" fill="#475569"/>
<path d="M211.391 216V148.125H234.453C250.391 148.125 257.609 157.594 257.609 169.688C257.609 181.688 250.391 191.344 234.547 191.344H219.828V216H211.391ZM219.828 183.844H234.172C244.953 183.844 249.266 177.75 249.266 169.688C249.266 161.531 244.953 155.625 234.078 155.625H219.828V183.844ZM268.391 216V165.094H276.172V172.875H276.734C278.609 167.719 283.859 164.25 289.859 164.25C291.078 164.25 293.141 164.344 294.078 164.438V172.594C293.516 172.406 291.266 172.031 289.203 172.031C281.891 172.031 276.453 177.094 276.453 183.938V216H268.391ZM321.078 217.031C307.203 217.031 297.828 206.625 297.828 190.781C297.828 174.938 307.203 164.438 321.078 164.438C334.859 164.438 344.141 174.938 344.141 190.781C344.141 206.625 334.859 217.031 321.078 217.031ZM321.078 209.906C331.297 209.906 336.078 200.906 336.078 190.781C336.078 180.656 331.297 171.562 321.078 171.562C310.672 171.562 305.891 180.656 305.891 190.781C305.891 200.906 310.672 209.906 321.078 209.906ZM354.734 216V165.094H362.516V173.062H363.172C365.328 167.625 370.203 164.438 376.859 164.438C383.516 164.438 388.016 167.625 390.453 173.062H391.016C393.641 167.812 398.984 164.438 406.297 164.438C415.391 164.438 421.859 169.969 421.859 181.969V216H413.797V182.062C413.797 174.562 409.016 171.656 403.484 171.656C396.359 171.656 392.328 176.438 392.328 182.906V216H384.172V181.219C384.172 175.5 380.047 171.656 374.234 171.656C368.141 171.656 362.797 176.812 362.797 184.219V216H354.734ZM434.797 235.125V165.094H442.578V173.156H443.516C445.203 170.438 448.391 164.438 458.234 164.438C470.984 164.438 479.891 174.562 479.891 190.688C479.891 206.812 470.984 217.031 458.328 217.031C448.578 217.031 445.203 211.031 443.516 208.219H442.859V235.125H434.797ZM442.672 190.5C442.672 201.938 447.828 209.812 457.203 209.812C466.859 209.812 471.828 201.375 471.828 190.5C471.828 179.906 466.953 171.656 457.203 171.656C447.641 171.656 442.672 179.25 442.672 190.5ZM512.609 165.094V171.844H501.922V201.375C501.922 207.938 505.109 208.969 508.578 208.969C510.078 208.969 512.141 208.875 513.359 208.781V216.281C512.141 216.469 510.078 216.656 507.734 216.656C500.984 216.656 493.766 212.438 493.766 203.438V171.844H486.078V165.094H493.766V152.906H501.922V165.094H512.609ZM548.141 216V148.125H589.297V155.625H556.578V178.312H587.141V185.719H556.578V208.5H589.766V216H548.141ZM620.797 217.031C608.141 217.031 599.141 206.812 599.141 190.688C599.141 174.562 608.141 164.438 620.891 164.438C630.734 164.438 633.922 170.438 635.609 173.156H636.172V148.125H644.328V216H636.453V208.219H635.609C633.828 211.031 630.547 217.031 620.797 217.031ZM621.922 209.812C631.203 209.812 636.453 201.938 636.453 190.5C636.453 179.25 631.391 171.656 621.922 171.656C612.172 171.656 607.297 179.906 607.297 190.5C607.297 201.375 612.266 209.812 621.922 209.812Z" fill="#EBEBE4"/>
<path d="M728.703 165.094V171.844H718.016V201.375C718.016 207.938 721.203 208.969 724.672 208.969C726.172 208.969 728.234 208.875 729.453 208.781V216.281C728.234 216.469 726.172 216.656 723.828 216.656C717.078 216.656 709.859 212.438 709.859 203.438V171.844H702.172V165.094H709.859V152.906H718.016V165.094H728.703ZM759.359 217.031C745.484 217.031 736.109 206.625 736.109 190.781C736.109 174.938 745.484 164.438 759.359 164.438C773.141 164.438 782.422 174.938 782.422 190.781C782.422 206.625 773.141 217.031 759.359 217.031ZM759.359 209.906C769.578 209.906 774.359 200.906 774.359 190.781C774.359 180.656 769.578 171.562 759.359 171.562C748.953 171.562 744.172 180.656 744.172 190.781C744.172 200.906 748.953 209.906 759.359 209.906ZM793.016 216V165.094H800.797V172.875H801.359C803.234 167.719 808.484 164.25 814.484 164.25C815.703 164.25 817.766 164.344 818.703 164.438V172.594C818.141 172.406 815.891 172.031 813.828 172.031C806.516 172.031 801.078 177.094 801.078 183.938V216H793.016Z" fill="#475569"/>
<rect x="645" y="238" width="60" height="10" rx="5" fill="#63C3F3"/>
<rect x="645" y="115" width="60" height="10" rx="5" fill="#63C3F3"/>
<rect x="680" y="120" width="123" height="10" rx="5" transform="rotate(90 680 120)" fill="#63C3F3"/>
</svg>
