<svg width="1024" height="364" viewBox="0 0 1024 364" fill="none" xmlns="http://www.w3.org/2000/svg">
<path d="M186.548 0H192.068C209.689 0 218.499 0 222.909 3.58381C226.741 6.69872 228.921 11.4089 228.814 16.3464C228.691 22.0272 222.987 28.7424 211.579 42.1727L109.408 162.463C104.49 168.253 102.03 171.149 101.072 174.397C100.227 177.261 100.2 180.304 100.994 183.182C101.896 186.447 104.303 189.385 109.119 195.262L109.119 195.262L213.123 322.173C224.073 335.535 229.548 342.217 229.601 347.851C229.647 352.75 227.445 357.4 223.627 360.469C219.236 364 210.598 364 193.323 364H186.822C182.386 364 180.168 364 178.114 363.444C176.295 362.952 174.577 362.141 173.039 361.051C171.304 359.82 169.893 358.109 167.071 354.686L35.6711 195.322C30.8105 189.427 28.3802 186.48 27.4711 183.202C26.6697 180.312 26.6966 177.254 27.5489 174.379C28.5157 171.117 30.9976 168.213 35.9613 162.405L167.086 8.96843C169.905 5.66991 171.314 4.02066 173.029 2.83589C174.549 1.78604 176.239 1.00726 178.024 0.534038C180.039 0 182.209 0 186.548 0Z" fill="#D1D5DB"/>
<path d="M838.252 0H832.732C815.111 0 806.301 0 801.891 3.58381C798.059 6.69872 795.879 11.4089 795.986 16.3464C796.109 22.0272 801.813 28.7424 813.221 42.1727L915.392 162.463C920.31 168.253 922.77 171.149 923.728 174.397C924.573 177.261 924.6 180.304 923.806 183.182C922.904 186.447 920.497 189.385 915.681 195.262L915.681 195.262L811.677 322.173C800.727 335.535 795.252 342.217 795.199 347.851C795.153 352.75 797.355 357.4 801.173 360.469C805.564 364 814.202 364 831.477 364H837.978C842.414 364 844.632 364 846.686 363.444C848.505 362.952 850.223 362.141 851.761 361.051C853.496 359.82 854.907 358.109 857.729 354.686L989.129 195.322C993.99 189.427 996.42 186.48 997.329 183.202C998.13 180.312 998.103 177.254 997.251 174.379C996.284 171.117 993.802 168.213 988.839 162.405L857.714 8.96843C854.895 5.66991 853.486 4.02066 851.771 2.83589C850.251 1.78604 848.561 1.00726 846.776 0.534038C844.761 0 842.591 0 838.252 0Z" fill="#D1D5DB"/>
<path d="M201 136C201 127.163 208.163 120 217 120H670V243H217C208.163 243 201 235.837 201 227V136Z" fill="#D1D5DB"/>
<path d="M233.905 216H221.233V146.976H247.825C253.073 146.976 257.617 147.936 261.457 149.856C265.297 151.712 268.209 154.336 270.193 157.728C272.241 161.056 273.265 164.896 273.265 169.248C273.265 175.904 271.025 181.152 266.545 184.992C262.065 188.832 255.825 190.752 247.825 190.752H233.905V216ZM233.905 180.576H247.825C252.113 180.576 255.281 179.584 257.329 177.6C259.377 175.552 260.401 172.8 260.401 169.344C260.401 165.824 259.345 162.912 257.233 160.608C255.185 158.304 252.049 157.152 247.825 157.152H233.905V180.576ZM280.93 164.64H292.45L292.834 170.688C295.522 166.016 299.394 163.68 304.45 163.68C305.154 163.68 305.89 163.744 306.658 163.872C307.49 164 308.098 164.16 308.482 164.352L308.386 175.872C306.594 175.616 305.026 175.488 303.682 175.488C298.37 175.488 294.818 177.504 293.026 181.536V216H280.93V164.64ZM311.815 189.888C311.815 184.896 312.775 180.416 314.695 176.448C316.615 172.48 319.367 169.376 322.951 167.136C326.599 164.832 330.887 163.68 335.815 163.68C340.743 163.68 344.999 164.832 348.583 167.136C352.231 169.376 355.015 172.48 356.935 176.448C358.855 180.416 359.815 184.896 359.815 189.888V190.848C359.815 195.84 358.855 200.32 356.935 204.288C355.015 208.256 352.263 211.36 348.679 213.6C345.095 215.84 340.839 216.96 335.911 216.96C330.919 216.96 326.599 215.84 322.951 213.6C319.367 211.36 316.615 208.256 314.695 204.288C312.775 200.32 311.815 195.84 311.815 190.848V189.888ZM324.007 190.848C324.007 195.648 324.967 199.584 326.887 202.656C328.871 205.664 331.879 207.168 335.911 207.168C339.815 207.168 342.727 205.664 344.647 202.656C346.631 199.584 347.623 195.648 347.623 190.848V189.888C347.623 185.152 346.631 181.248 344.647 178.176C342.727 175.104 339.783 173.568 335.815 173.568C331.847 173.568 328.871 175.104 326.887 178.176C324.967 181.248 324.007 185.152 324.007 189.888V190.848ZM367.555 164.64H378.979L379.363 170.304C383.075 165.888 388.035 163.68 394.243 163.68C400.963 163.68 405.603 166.336 408.163 171.648C409.891 169.152 412.067 167.2 414.691 165.792C417.315 164.384 420.355 163.68 423.811 163.68C429.187 163.68 433.315 165.216 436.195 168.288C439.075 171.36 440.515 176.256 440.515 182.976V216H428.323V182.88C428.323 179.936 427.555 177.696 426.019 176.16C424.483 174.56 422.339 173.76 419.587 173.76C416.963 173.76 414.723 174.528 412.867 176.064C411.011 177.6 410.083 179.552 410.083 181.92V216H397.891V182.4C397.891 179.584 397.123 177.44 395.587 175.968C394.051 174.496 391.907 173.76 389.155 173.76C386.659 173.76 384.451 174.528 382.531 176.064C380.611 177.536 379.651 179.488 379.651 181.92V216H367.555V164.64ZM450.523 164.64H461.659L462.235 169.824C465.691 165.728 470.203 163.68 475.771 163.68C482.171 163.68 487.099 166.048 490.555 170.784C494.075 175.456 495.835 181.792 495.835 189.792V190.848C495.835 195.904 495.035 200.416 493.435 204.384C491.899 208.288 489.627 211.36 486.619 213.6C483.675 215.84 480.123 216.96 475.963 216.96C470.459 216.96 466.011 215.104 462.619 211.392V235.68H450.523V164.64ZM483.643 189.792C483.643 184.992 482.715 181.12 480.859 178.176C479.067 175.232 476.283 173.76 472.507 173.76C467.835 173.76 464.539 175.584 462.619 179.232V201.504C464.667 205.28 467.995 207.168 472.603 207.168C476.315 207.168 479.067 205.664 480.859 202.656C482.715 199.584 483.643 195.648 483.643 190.848V189.792ZM518.658 201.312C518.658 203.488 519.074 204.96 519.906 205.728C520.802 206.496 522.146 206.88 523.938 206.88C525.474 206.88 526.818 206.752 527.97 206.496V215.808C525.666 216.576 523.074 216.96 520.194 216.96C515.906 216.96 512.546 215.808 510.114 213.504C507.682 211.136 506.466 207.392 506.466 202.272V173.664H498.306V164.64H506.466V152.064H518.658V164.64H527.586V173.664H518.658V201.312ZM553.858 146.976H599.266V157.152H566.53V175.488H594.658V185.376H566.53V205.824H599.458V216H553.858V146.976ZM604.036 189.984C604.036 184.736 604.836 180.128 606.436 176.16C608.036 172.192 610.34 169.12 613.348 166.944C616.42 164.768 620.036 163.68 624.196 163.68C629.508 163.68 633.796 165.568 637.06 169.344V146.976H649.348V216H638.308L637.636 210.528C634.244 214.816 629.732 216.96 624.1 216.96C620.004 216.96 616.452 215.84 613.444 213.6C610.436 211.36 608.1 208.288 606.436 204.384C604.836 200.416 604.036 195.936 604.036 190.944V189.984ZM616.132 190.944C616.132 195.68 617.028 199.552 618.82 202.56C620.612 205.504 623.364 206.976 627.076 206.976C631.748 206.976 635.076 204.992 637.06 201.024V179.52C636.1 177.664 634.788 176.256 633.124 175.296C631.524 174.272 629.572 173.76 627.268 173.76C623.492 173.76 620.676 175.264 618.82 178.272C617.028 181.216 616.132 185.12 616.132 189.984V190.944Z" fill="#4A5568"/>
<path d="M711.22 201.312C711.22 203.488 711.636 204.96 712.468 205.728C713.364 206.496 714.708 206.88 716.5 206.88C718.036 206.88 719.38 206.752 720.532 206.496V215.808C718.228 216.576 715.636 216.96 712.756 216.96C708.468 216.96 705.108 215.808 702.676 213.504C700.244 211.136 699.028 207.392 699.028 202.272V173.664H690.868V164.64H699.028V152.064H711.22V164.64H720.148V173.664H711.22V201.312ZM724.878 189.888C724.878 184.896 725.838 180.416 727.758 176.448C729.678 172.48 732.43 169.376 736.014 167.136C739.662 164.832 743.95 163.68 748.878 163.68C753.806 163.68 758.062 164.832 761.646 167.136C765.294 169.376 768.078 172.48 769.998 176.448C771.918 180.416 772.878 184.896 772.878 189.888V190.848C772.878 195.84 771.918 200.32 769.998 204.288C768.078 208.256 765.326 211.36 761.742 213.6C758.158 215.84 753.902 216.96 748.974 216.96C743.982 216.96 739.662 215.84 736.014 213.6C732.43 211.36 729.678 208.256 727.758 204.288C725.838 200.32 724.878 195.84 724.878 190.848V189.888ZM737.07 190.848C737.07 195.648 738.03 199.584 739.95 202.656C741.934 205.664 744.942 207.168 748.974 207.168C752.878 207.168 755.79 205.664 757.71 202.656C759.694 199.584 760.686 195.648 760.686 190.848V189.888C760.686 185.152 759.694 181.248 757.71 178.176C755.79 175.104 752.846 173.568 748.878 173.568C744.91 173.568 741.934 175.104 739.95 178.176C738.03 181.248 737.07 185.152 737.07 189.888V190.848ZM780.617 164.64H792.137L792.521 170.688C795.209 166.016 799.081 163.68 804.137 163.68C804.841 163.68 805.577 163.744 806.345 163.872C807.177 164 807.785 164.16 808.169 164.352L808.073 175.872C806.281 175.616 804.713 175.488 803.369 175.488C798.057 175.488 794.505 177.504 792.713 181.536V216H780.617V164.64Z" fill="#D1D5DB"/>
<rect x="645" y="238" width="60" height="10" rx="5" fill="#22D3EE"/>
<rect x="645" y="115" width="60" height="10" rx="5" fill="#22D3EE"/>
<rect x="680" y="120" width="123" height="10" rx="5" transform="rotate(90 680 120)" fill="#22D3EE"/>
</svg>
